# xmcd
#
# Track frame offsets: 
#        150
#        26710
#        53312
#        77243
#        100184
#        124184
#        142372
#        169550
#        190497
#        209715
#
# Disc length: 3139 seconds
#
# Revision: 0
# Processed by: cddbd v1.5.2PL0 Copyright (c) Steve Scherf et al.
# Submitted via: ExactAudioCopy v1.0b3
#
DISCID=900c410a
DTITLE=Truong Vu - Suong Trang Mien Que Ngoai
DYEAR=2006
DGENRE=
TTITLE0=Muoi nam tai ngo
TTITLE1=Tam su nguoi thuong binh (Bon minh 5 dua)
TTITLE2=Ngay do xa roi
TTITLE3=Suong trang mien que ngoai
TTITLE4=Nguoi ve don vi moi
TTITLE5=Chieu hanh quan
TTITLE6=Gia biet Sai Gon
TTITLE7=Vung truoc mat
TTITLE8=Linh xa nha
TTITLE9=Xin anh giu tron tinh que
EXTD=
EXTT0=
EXTT1=
EXTT2=
EXTT3=
EXTT4=
EXTT5=
EXTT6=
EXTT7=
EXTT8=
EXTT9=
PLAYORDER=
